<?xml version="1.0" encoding="UTF-8"?>
<svg id="Layer_1" xmlns="http://www.w3.org/2000/svg" version="1.1" viewBox="0 0 1080 1080">
  <!-- Generator: Adobe Illustrator 29.5.1, SVG Export Plug-In . SVG Version: 2.1.0 Build 141)  -->
  <defs>
    <style>
      .st0 {
        fill: #231f20;
      }

      .st1 {
        fill: #aaa9a7;
      }

      .st2 {
        fill: #362872;
      }
    </style>
  </defs>
  <path class="st1" d="M304.24,632.43c-45.74,286.51,235.13,510.29,610.42,346.65-245.49,17.07-431.63-37.25-514.74-215.49,110.3,128.88,257.29,163.27,453.5,70.93-210.19,14.27-370.07-30.19-409.1-215.68-8.74-145.61,83.27-294.96,255.11-447.28,0,0-87.63,34.74-163.92,89.75-113.54,96.48-199.91,174.66-231.27,371.12Z"/>
  <g>
    <path class="st2" d="M110.79,376.42v10.02h27.03v183.03c0,1.72-.05,3.69-.14,5.89-.09,1.92-.46,3.72-1.11,5.35-.59,1.47-1.48,2.65-2.73,3.6-1.11.85-3.08,1.3-5.7,1.3-.74,0-1.79-.05-3.19-.14-1.07-.07-2.12-.36-3.14-.87-.91-.46-1.77-1.26-2.56-2.41-.72-1.04-1.1-2.8-1.1-5.08,0-.27.05-1.16.53-3.53.38-1.89.86-4.02,1.44-6.33.59-2.36,1.1-4.7,1.51-6.95.43-2.36.64-4.26.64-5.82,0-3.72-.82-6.8-2.43-9.16-1.54-2.25-3.48-4-5.76-5.2-2.16-1.13-4.46-1.88-6.83-2.22-2.18-.31-4.15-.47-5.85-.47-6.48,0-11.39,1.05-15.02,3.2-3.53,2.1-6.19,4.55-7.9,7.29-1.71,2.74-2.7,5.51-2.93,8.21-.21,2.34-.31,4.01-.31,5.11,0,6.87,1.67,12.68,4.96,17.29,3.2,4.48,7.3,8.04,12.2,10.6,4.77,2.49,10.11,4.22,15.88,5.15,5.61.9,11.1,1.36,16.33,1.36,14.98,0,26.82-2.62,35.19-7.78,8.33-5.14,14.56-11.39,18.52-18.57,3.9-7.08,6.24-14.53,6.96-22.15h0c.69-7.32,1.04-13.54,1.04-18.5v-142.19h27.03v-10.02h-102.56Z"/>
    <path class="st2" d="M510.18,495.48c-3.8-6.98-8.85-13.01-15-17.93-6.06-4.85-13.08-8.9-20.87-12.04-7.58-3.05-15.46-5.89-23.41-8.45-7.94-2.54-15.69-5-23.23-7.35-7.32-2.28-13.91-5.02-19.58-8.14-5.52-3.03-10.01-6.69-13.37-10.87-3.22-4-4.78-8.97-4.78-15.19,0-4.03.98-8.03,2.92-11.9,1.97-3.93,4.89-7.58,8.68-10.83,3.82-3.28,8.6-5.96,14.21-7.98,5.62-2.03,12.26-3.06,19.71-3.06,9.06,0,16.6,1.56,22.41,4.65,5.87,3.12,10.78,7.25,14.61,12.26,3.93,5.15,7.21,10.99,9.74,17.37,2.62,6.6,5.12,13.38,7.44,20.14l.68,1.99h8.88v-61.73h-9.62l-.76,1.81c-1.13,2.71-1.88,3.63-2.12,3.87,0,0-.7.49-3.38.49-1.96,0-4.2-.52-6.66-1.54-2.86-1.18-6.14-2.41-10.02-3.74-3.8-1.3-8.24-2.56-13.19-3.75-5.1-1.22-11.07-1.84-17.73-1.84-10.51,0-20.41,1.8-29.43,5.35-9,3.54-16.86,8.27-23.36,14.06-6.52,5.81-11.7,12.59-15.38,20.16-3.71,7.62-5.59,15.67-5.59,23.91,0,10.98,1.83,20.31,5.44,27.73,3.59,7.39,8.44,13.7,14.41,18.74,5.88,4.97,12.66,9.08,20.15,12.22,7.3,3.06,14.92,5.77,22.64,8.04,7.64,2.25,15.08,4.46,22.32,6.61,7.01,2.09,13.34,4.68,18.81,7.69,5.27,2.91,9.55,6.58,12.7,10.91,3.04,4.17,4.58,9.61,4.58,16.19,0,3.61-.75,7.92-2.22,12.81-1.45,4.8-3.99,9.46-7.55,13.83-3.53,4.34-8.48,8.08-14.72,11.11-6.22,3.02-14.39,4.55-24.27,4.55-3.01,0-6.19-.05-9.47-.15-3.17-.09-6.58-.64-10.15-1.65-3.57-1-7.41-2.64-11.41-4.88-3.96-2.21-8.14-5.5-12.48-9.84-3.92-3.73-7.27-7.83-9.95-12.19-2.74-4.44-5.05-8.85-6.84-13.11-1.79-4.25-3.18-8.26-4.12-11.93-.95-3.7-1.63-6.73-2-9l-.41-2.47h-9.86v71.13h9.73l.7-1.96c1.08-3.04,1.97-3.88,2.22-4.07.23-.17,1.2-.73,4.1-.73,1.15,0,3.49.29,8.13,1.64,4.05,1.19,8.74,2.44,13.93,3.71,5.13,1.26,10.81,2.51,16.88,3.7,6.12,1.21,12.4,1.82,18.64,1.82,12.45,0,23.93-1.99,34.12-5.93,10.18-3.93,19.09-9.31,26.48-15.99,7.42-6.71,13.24-14.64,17.31-23.59,4.07-8.97,6.14-18.57,6.14-28.55s-1.95-19.02-5.79-26.09Z"/>
    <path class="st2" d="M863.11,581.5l-92.55-213.3h-11.85l-87.55,213.3h-25.65v10.02h61.43v-10.02h-24.68l30.17-72.84h66.6l31.53,72.84h-25.78v10.02h104.62v-10.02h-26.28ZM716.33,498.64l28.58-69.66,30.11,69.66h-58.68Z"/>
  </g>
  <g>
    <path class="st0" d="M60.58,965.35c-5.26,0-9.78-1-13.55-2.99-3.77-1.99-6.65-4.91-8.64-8.75s-2.99-8.51-2.99-14.01c0-5.07,1-9.54,2.99-13.41,1.99-3.86,4.87-6.89,8.64-9.07,3.77-2.18,8.29-3.27,13.55-3.27,3.74,0,7.18.62,10.31,1.85,3.13,1.23,5.78,3.11,7.97,5.62,2.18,2.51,3.72,5.62,4.62,9.32l-11.31,2.13c-.57-3.22-1.83-5.75-3.77-7.57-1.95-1.83-4.53-2.74-7.75-2.74-2.42,0-4.49.31-6.22.93-1.73.62-3.14,1.64-4.23,3.06-1.09,1.42-1.91,3.26-2.45,5.51-.55,2.25-.82,4.8-.82,7.65s.19,5.38.57,7.33c.38,1.94,1.07,3.63,2.06,5.05,1.19,1.56,2.66,2.75,4.41,3.56,1.75.81,3.96,1.21,6.61,1.21,3.22,0,5.82-.86,7.79-2.6,1.97-1.73,3.31-4.07,4.02-7.01l11.45,2.99c-1.9,4.88-4.86,8.64-8.89,11.27-4.03,2.63-8.82,3.95-14.37,3.95Z"/>
    <path class="st0" d="M108.52,965.35c-3.89,0-7.23-.75-10.03-2.24-2.8-1.49-4.94-3.64-6.44-6.44-1.49-2.8-2.24-6.12-2.24-9.96s.76-6.89,2.28-9.71c1.52-2.82,3.69-5.03,6.51-6.62,2.82-1.59,6.13-2.38,9.92-2.38s6.97.79,9.82,2.38c2.85,1.59,5,3.8,6.47,6.65,1.47,2.85,2.2,6.07,2.2,9.67s-.75,6.96-2.24,9.78c-1.49,2.82-3.65,5-6.47,6.54-2.82,1.54-6.08,2.31-9.78,2.31ZM108.52,958.09c2.56,0,4.39-.71,5.48-2.13.71-.85,1.25-2.04,1.6-3.56s.53-3.41.53-5.69c0-4.36-.71-7.42-2.13-9.18-1.14-1.47-2.96-2.2-5.48-2.2-1.28,0-2.37.15-3.27.46-.9.31-1.64.84-2.2,1.6-.81.85-1.38,2.04-1.71,3.56-.33,1.52-.5,3.44-.5,5.76s.18,4.18.53,5.72c.36,1.54.94,2.74,1.74,3.59,1.09,1.38,2.89,2.06,5.4,2.06Z"/>
    <path class="st0" d="M135.9,964.49v-35.56h10.17v7.54l-.78.43c.62-3.03,1.92-5.27,3.91-6.72,1.99-1.45,4.48-2.17,7.47-2.17,2.23,0,4.07.26,5.51.78,1.45.52,2.76,1.38,3.95,2.56,1.28,1.28,2.13,2.81,2.56,4.59.43,1.78.64,4.02.64,6.72v21.84h-10.31v-21.2c0-1.57-.13-2.81-.39-3.74-.26-.92-.72-1.69-1.39-2.31-.62-.57-1.26-.95-1.92-1.14-.66-.19-1.54-.28-2.63-.28-1.8,0-3.34.72-4.62,2.17-1.28,1.45-1.92,3.8-1.92,7.08v19.42h-10.24Z"/>
    <path class="st0" d="M179.71,964.49v-35.56h10.17v7.54l-.78.43c.62-3.03,1.92-5.27,3.91-6.72,1.99-1.45,4.48-2.17,7.47-2.17,2.23,0,4.07.26,5.51.78,1.45.52,2.76,1.38,3.95,2.56,1.28,1.28,2.13,2.81,2.56,4.59.43,1.78.64,4.02.64,6.72v21.84h-10.31v-21.2c0-1.57-.13-2.81-.39-3.74s-.72-1.69-1.39-2.31c-.62-.57-1.26-.95-1.92-1.14-.66-.19-1.54-.28-2.63-.28-1.8,0-3.34.72-4.62,2.17-1.28,1.45-1.92,3.8-1.92,7.08v19.42h-10.24Z"/>
    <path class="st0" d="M239.96,965.35c-2.75,0-5.23-.4-7.43-1.21-2.21-.81-4.09-1.97-5.65-3.49-1.71-1.66-2.99-3.66-3.84-6.01-.85-2.35-1.28-5.01-1.28-8s.42-5.57,1.25-7.9c.83-2.32,2.1-4.31,3.81-5.97,1.56-1.61,3.44-2.81,5.62-3.59,2.18-.78,4.67-1.17,7.47-1.17s5.37.44,7.58,1.32c2.2.88,4.04,2.12,5.51,3.73,1.71,1.85,2.98,4.14,3.81,6.86.83,2.73,1.17,5.84,1.03,9.35h-26.03c.05,2.99.76,5.23,2.13,6.72,1.37,1.49,3.37,2.24,5.97,2.24,2.23,0,3.94-.48,5.12-1.46,1.18-.97,1.97-2.38,2.35-4.23l10.03.78c-1.09,3.98-3.12,6.98-6.08,9-2.96,2.02-6.75,3.02-11.35,3.02ZM231.78,944.72l-2.77-2.35h21.55l-2.99,1.71c-.05-1.61-.23-2.99-.53-4.13-.31-1.14-.82-2.09-1.53-2.85-.66-.71-1.45-1.23-2.35-1.56-.9-.33-1.99-.5-3.27-.5-1.47,0-2.71.21-3.73.64-1.02.43-1.86,1.07-2.52,1.92-1.14,1.61-1.76,3.72-1.85,6.33v.78Z"/>
    <path class="st0" d="M283.34,965.35c-3.89,0-7.22-.74-9.99-2.2-2.77-1.47-4.88-3.6-6.33-6.4-1.45-2.8-2.17-6.14-2.17-10.03,0-3.65.73-6.9,2.2-9.75,1.47-2.85,3.59-5.05,6.37-6.62,2.77-1.56,6.08-2.35,9.92-2.35,4.74,0,8.48,1.16,11.2,3.49,2.73,2.32,4.47,5.5,5.23,9.53l-9.67,1.64c-.47-2.23-1.19-3.96-2.13-5.19-.95-1.23-2.49-1.85-4.62-1.85-1.33,0-2.43.18-3.31.53-.88.36-1.6.91-2.17,1.67-.66.9-1.14,2.09-1.42,3.56-.28,1.47-.43,3.25-.43,5.34,0,3.89.53,6.71,1.6,8.46,1.07,1.75,2.98,2.63,5.73,2.63,1.85,0,3.31-.52,4.38-1.56,1.07-1.04,1.86-2.54,2.38-4.48l9.89.92c-.38,2.47-1.29,4.66-2.74,6.58-1.45,1.92-3.35,3.41-5.72,4.48-2.37,1.07-5.1,1.6-8.18,1.6Z"/>
    <path class="st0" d="M322.61,964.85c-3.75,0-6.66-.81-8.75-2.42-2.09-1.61-3.13-4.2-3.13-7.75v-17.85h-5.12v-7.9h5.12v-9.96h10.1v9.96h7.18v7.9h-7.18v16.71c0,.95.3,1.61.89,1.99.59.38,1.5.57,2.74.57,1,0,2.11-.12,3.34-.36l.14,8.61c-1.42.33-3.2.5-5.33.5Z"/>
    <path class="st0" d="M336.97,924.24v-10.31h10.24v10.31h-10.24ZM336.97,964.49v-35.56h10.24v35.56h-10.24ZM336.97,936.83v-7.9h9.96v7.9h-9.96ZM336.97,964.49v-7.97h10.24v7.97h-10.24Z"/>
    <path class="st0" d="M357.96,964.49v-35.56h10.17v7.54l-.78.43c.62-3.03,1.92-5.27,3.91-6.72,1.99-1.45,4.48-2.17,7.47-2.17,2.23,0,4.07.26,5.51.78,1.45.52,2.76,1.38,3.95,2.56,1.28,1.28,2.13,2.81,2.56,4.59.43,1.78.64,4.02.64,6.72v21.84h-10.31v-21.2c0-1.57-.13-2.81-.39-3.74s-.72-1.69-1.39-2.31c-.62-.57-1.26-.95-1.92-1.14-.66-.19-1.54-.28-2.63-.28-1.8,0-3.34.72-4.62,2.17-1.28,1.45-1.92,3.8-1.92,7.08v19.42h-10.24Z"/>
    <path class="st0" d="M418.55,979.08c-4.88,0-8.83-.97-11.84-2.92-3.01-1.94-4.64-4.98-4.87-9.1l10.03-.64c.19,1.9.84,3.27,1.96,4.13,1.11.85,2.74,1.28,4.87,1.28,2.46,0,4.24-.65,5.33-1.96,1.09-1.3,1.64-3.33,1.64-6.08v-8.53l1.07,1.14c-.9,2.51-2.25,4.45-4.05,5.8-1.8,1.35-4.1,2.03-6.9,2.03-3.13,0-5.9-.76-8.32-2.28-2.42-1.52-4.28-3.67-5.58-6.47-1.3-2.8-1.96-6.02-1.96-9.67s.66-6.6,1.99-9.28c1.33-2.68,3.18-4.77,5.55-6.26,2.37-1.49,5.07-2.24,8.11-2.24,2.7,0,4.99.65,6.86,1.96,1.87,1.3,3.31,3.07,4.3,5.3l-1.07,1.56v-7.9h10.24v34.99c0,4.88-1.54,8.63-4.62,11.24-3.08,2.61-7.33,3.91-12.73,3.91ZM418.55,956.95c1.04,0,1.99-.17,2.85-.5.85-.33,1.56-.83,2.13-1.49.85-.95,1.47-2.18,1.85-3.7.38-1.52.57-3.34.57-5.48,0-3.41-.59-6.02-1.78-7.82-1.19-1.8-3.01-2.7-5.48-2.7-1.28,0-2.38.18-3.31.53-.93.36-1.7.89-2.31,1.6-.71.85-1.23,1.97-1.56,3.34-.33,1.38-.5,3.06-.5,5.05,0,2.66.26,4.81.78,6.47.52,1.66,1.33,2.86,2.42,3.59,1.09.74,2.54,1.1,4.34,1.1Z"/>
    <path class="st0" d="M457.89,964.49l18.63-49.79h11.66l18.56,49.79h-11.74l-9.82-30.16c-.1-.33-.2-.69-.32-1.07-.12-.38-.25-.73-.39-1.07-.43-1.14-.85-2.41-1.28-3.81-.43-1.4-.76-2.67-1-3.8h-.07c-.38,1.42-.75,2.76-1.1,4.02-.36,1.26-.72,2.48-1.1,3.66-.1.33-.21.68-.36,1.03s-.26.7-.36,1.03l-9.67,30.16h-11.66ZM467.77,952.97l2.99-9.03h23.33l2.56,9.03h-28.88Z"/>
    <path class="st0" d="M520.34,964.49l-12.23-35.56h11.03l4.27,15.51.71,2.7c.33,1.14.68,2.36,1.03,3.66.36,1.3.7,2.71,1.03,4.23.38-1.38.93-3.27,1.64-5.69.19-.85.39-1.68.6-2.49.21-.81.42-1.61.61-2.42l4.48-15.51h10.88l-12.23,35.56h-11.81Z"/>
    <path class="st0" d="M551.49,924.24v-10.31h10.24v10.31h-10.24ZM551.49,964.49v-35.56h10.24v35.56h-10.24ZM551.49,936.83v-7.9h9.96v7.9h-9.96ZM551.49,964.49v-7.97h10.24v7.97h-10.24Z"/>
    <path class="st0" d="M583.57,965.35c-3.7,0-6.73-.95-9.11-2.85-2.37-1.89-3.56-4.6-3.56-8.11,0-2.46.59-4.43,1.78-5.9,1.18-1.47,2.75-2.58,4.69-3.34,1.94-.76,4.29-1.37,7.04-1.85l9.74-1.78v-.43c0-.95-.05-1.75-.14-2.42-.09-.66-.36-1.25-.78-1.78-.47-.66-1.07-1.11-1.78-1.35-.71-.24-1.78-.36-3.2-.36-2.04,0-3.56.46-4.55,1.39-1,.93-1.49,2.57-1.49,4.94l-10.03-.78c0-2.23.38-4.17,1.14-5.83.76-1.66,1.9-2.99,3.41-3.98,1.38-1,3.08-1.73,5.12-2.21,2.04-.47,4.39-.71,7.04-.71,3.13,0,5.84.44,8.14,1.32,2.3.88,4.05,2.2,5.26,3.98,1.21,1.78,1.81,3.95,1.81,6.51v18.28c0,1.23.12,2.35.36,3.34.24,1,.57,1.92,1,2.77v.28h-10.17c-.28-.95-.47-2.16-.57-3.63-.1-1.47-.1-2.75,0-3.84l.92.28c-.33,1.42-1.01,2.74-2.03,3.95-1.02,1.21-2.38,2.19-4.09,2.95-1.71.76-3.7,1.14-5.97,1.14ZM586.13,958.23c2.42,0,4.36-.61,5.83-1.85,1.47-1.23,2.2-3.13,2.2-5.69v-7.33l4.77,3.7-12.73,2.84-.43.07c-1.47.38-2.56.89-3.27,1.53-.71.64-1.07,1.55-1.07,2.74,0,1.38.44,2.38,1.32,3.02.88.64,2,.96,3.38.96Z"/>
    <path class="st0" d="M628.8,964.85c-3.75,0-6.66-.81-8.75-2.42-2.09-1.61-3.13-4.2-3.13-7.75v-17.85h-5.12v-7.9h5.12v-9.96h10.1v9.96h7.18v7.9h-7.18v16.71c0,.95.3,1.61.89,1.99.59.38,1.5.57,2.74.57,1,0,2.11-.12,3.34-.36l.14,8.61c-1.42.33-3.2.5-5.33.5Z"/>
    <path class="st0" d="M643.17,924.24v-10.31h10.24v10.31h-10.24ZM643.17,964.49v-35.56h10.24v35.56h-10.24ZM643.17,936.83v-7.9h9.96v7.9h-9.96ZM643.17,964.49v-7.97h10.24v7.97h-10.24Z"/>
    <path class="st0" d="M680.94,965.35c-3.89,0-7.23-.75-10.03-2.24-2.8-1.49-4.94-3.64-6.44-6.44-1.49-2.8-2.24-6.12-2.24-9.96s.76-6.89,2.27-9.71c1.52-2.82,3.69-5.03,6.51-6.62,2.82-1.59,6.13-2.38,9.92-2.38s6.97.79,9.82,2.38c2.84,1.59,5,3.8,6.47,6.65,1.47,2.85,2.21,6.07,2.21,9.67s-.75,6.96-2.24,9.78c-1.49,2.82-3.65,5-6.47,6.54-2.82,1.54-6.08,2.31-9.78,2.31ZM680.94,958.09c2.56,0,4.39-.71,5.48-2.13.71-.85,1.24-2.04,1.6-3.56.36-1.52.53-3.41.53-5.69,0-4.36-.71-7.42-2.13-9.18-1.14-1.47-2.96-2.2-5.48-2.2-1.28,0-2.37.15-3.27.46-.9.31-1.64.84-2.2,1.6-.81.85-1.38,2.04-1.71,3.56-.33,1.52-.5,3.44-.5,5.76s.18,4.18.53,5.72c.36,1.54.94,2.74,1.74,3.59,1.09,1.38,2.89,2.06,5.4,2.06Z"/>
    <path class="st0" d="M708.32,964.49v-35.56h10.17v7.54l-.78.43c.62-3.03,1.92-5.27,3.91-6.72,1.99-1.45,4.48-2.17,7.47-2.17,2.23,0,4.07.26,5.51.78,1.45.52,2.76,1.38,3.95,2.56,1.28,1.28,2.13,2.81,2.56,4.59.43,1.78.64,4.02.64,6.72v21.84h-10.31v-21.2c0-1.57-.13-2.81-.39-3.74s-.72-1.69-1.39-2.31c-.62-.57-1.26-.95-1.92-1.14-.66-.19-1.54-.28-2.63-.28-1.8,0-3.34.72-4.62,2.17-1.28,1.45-1.92,3.8-1.92,7.08v19.42h-10.24Z"/>
    <path class="st0" d="M770.2,964.49v-49.79h10.95v49.79h-10.95ZM770.2,923.38v-8.68h10.95v8.68h-10.95ZM770.2,964.49v-8.68h10.95v8.68h-10.95Z"/>
    <path class="st0" d="M792.82,964.49v-35.56h10.17v7.54l-.78.43c.62-3.03,1.92-5.27,3.91-6.72,1.99-1.45,4.48-2.17,7.47-2.17,2.23,0,4.07.26,5.51.78,1.45.52,2.76,1.38,3.95,2.56,1.28,1.28,2.13,2.81,2.56,4.59.43,1.78.64,4.02.64,6.72v21.84h-10.31v-21.2c0-1.57-.13-2.81-.39-3.74-.26-.92-.72-1.69-1.39-2.31-.62-.57-1.26-.95-1.92-1.14-.66-.19-1.54-.28-2.63-.28-1.8,0-3.34.72-4.62,2.17-1.28,1.45-1.92,3.8-1.92,7.08v19.42h-10.24Z"/>
    <path class="st0" d="M850.72,965.35c-3.08,0-5.83-.75-8.25-2.24-2.42-1.49-4.3-3.65-5.65-6.47-1.35-2.82-2.03-6.13-2.03-9.92s.65-6.97,1.96-9.82c1.3-2.85,3.15-5.04,5.55-6.58,2.39-1.54,5.18-2.31,8.36-2.31,2.65,0,4.96.64,6.93,1.92,1.97,1.28,3.4,3.08,4.3,5.41l-1.21,1.42v-22.05h10.24v49.79h-10.24v-8.32l.78.92c-.52,2.7-1.74,4.76-3.66,6.15-1.92,1.4-4.28,2.1-7.08,2.1ZM853.35,958.09c1.04,0,1.99-.18,2.85-.53.85-.36,1.59-.84,2.2-1.46.81-1,1.42-2.28,1.85-3.84.43-1.56.64-3.39.64-5.48,0-3.79-.59-6.65-1.78-8.57-1.19-1.92-3.06-2.88-5.62-2.88-1.33,0-2.45.18-3.38.53s-1.67.94-2.24,1.74c-.71.85-1.21,2.03-1.49,3.52-.28,1.49-.43,3.35-.43,5.58,0,2.75.21,4.94.64,6.58.43,1.64,1.17,2.84,2.24,3.63,1.07.78,2.57,1.17,4.52,1.17Z"/>
    <path class="st0" d="M894.6,965.35c-2.23,0-4.15-.31-5.76-.92-1.61-.61-3.06-1.61-4.34-2.99-1.28-1.33-2.13-2.95-2.56-4.87-.43-1.92-.64-4.28-.64-7.08v-20.56h10.46v20.41c0,1.71.11,3.06.32,4.05s.63,1.85,1.25,2.56c.61.66,1.29,1.1,2.03,1.32.73.21,1.65.32,2.74.32,1.9,0,3.45-.75,4.66-2.24,1.21-1.49,1.81-3.85,1.81-7.08v-19.35h10.1v35.56h-9.96v-8.39l1.21-.28c-.57,3.03-1.84,5.38-3.8,7.04-1.97,1.66-4.47,2.49-7.51,2.49Z"/>
    <path class="st0" d="M939.48,965.35c-4.65,0-8.48-.96-11.49-2.88-3.01-1.92-4.66-4.82-4.94-8.71l9.75-1.21c.05,1.99.69,3.51,1.92,4.55,1.23,1.04,2.87,1.57,4.91,1.57s3.5-.34,4.52-1.03,1.53-1.69,1.53-3.02c0-.71-.24-1.29-.71-1.74-.47-.45-1.2-.86-2.17-1.21-.97-.36-2.27-.75-3.88-1.17-.24-.05-.47-.09-.71-.14-.24-.05-.5-.09-.78-.14-2.8-.71-5.12-1.46-6.97-2.24-1.85-.78-3.37-1.91-4.55-3.38-1.19-1.47-1.78-3.34-1.78-5.62,0-2.51.67-4.58,2.03-6.19,1.35-1.61,3.14-2.81,5.37-3.59,2.23-.78,4.72-1.17,7.47-1.17,4.36,0,7.94.85,10.74,2.56,2.8,1.71,4.41,4.46,4.84,8.25l-9.39,1.49c-.1-1.9-.68-3.32-1.74-4.27-1.07-.95-2.5-1.42-4.3-1.42-1.56,0-2.83.3-3.8.89-.97.59-1.46,1.48-1.46,2.67,0,1.04.5,1.86,1.49,2.45,1,.59,2.65,1.15,4.98,1.67.14,0,.27.01.39.04.12.02.25.06.39.11.09.05.2.07.32.07s.22.02.32.07c2.89.62,5.26,1.29,7.11,2.03,1.85.74,3.41,1.86,4.69,3.38,1.28,1.52,1.92,3.56,1.92,6.12,0,3.98-1.49,6.85-4.48,8.61-2.99,1.75-6.83,2.63-11.52,2.63Z"/>
    <path class="st0" d="M978.32,964.85c-3.75,0-6.66-.81-8.75-2.42-2.09-1.61-3.13-4.2-3.13-7.75v-17.85h-5.12v-7.9h5.12v-9.96h10.1v9.96h7.18v7.9h-7.18v16.71c0,.95.3,1.61.89,1.99.59.38,1.5.57,2.74.57,1,0,2.11-.12,3.34-.36l.14,8.61c-1.42.33-3.2.5-5.33.5Z"/>
    <path class="st0" d="M992.68,964.49v-35.56h10.1v9.46l-.43-.78c.24-1.71.77-3.26,1.6-4.66.83-1.4,1.99-2.53,3.49-3.38,1.49-.85,3.31-1.33,5.44-1.42.24-.05.53-.07.89-.07h1.67l-.21,9.17c-.81-.09-1.45-.14-1.92-.14-2.27,0-4.17.39-5.69,1.17-1.52.78-2.68,2.04-3.49,3.77-.81,1.73-1.21,3.97-1.21,6.72v15.72h-10.24Z"/>
    <path class="st0" d="M1029.95,979.08c-.85,0-1.84-.1-2.95-.28-1.11-.19-2.08-.4-2.88-.64l.14-8.89c.66.19,1.36.38,2.1.57.73.19,1.41.28,2.03.28,1.19,0,2.1-.14,2.74-.43s1.19-.77,1.64-1.46c.45-.69.89-1.69,1.31-3.02.1-.28.19-.59.29-.92.09-.33.19-.69.28-1.07l.36,3.41-14.58-37.7h11.24l4.98,15.43c.24.66.46,1.38.68,2.13.21.76.44,1.57.67,2.42.24,1,.49,2.02.75,3.06.26,1.04.51,2.11.75,3.2l-.71-.93c.19-1,.43-2.01.71-3.06.28-1.04.57-2.09.85-3.13.24-.76.46-1.49.68-2.21s.44-1.42.67-2.13l4.34-14.79h10.74l-13.16,38.27c-1.04,2.99-2.16,5.33-3.34,7.04-1.19,1.71-2.61,2.94-4.27,3.7s-3.68,1.14-6.05,1.14Z"/>
  </g>
  <path class="st1" d="M742.16,164.19c18.35-2.41,38.48-8.85,60.45-19.48,10.06-.13,19.16-2.47,27.65-6.24,8.63,1.18,16.61,2.96,24.09,4.93,8.84,2.67,17.1,8.27,25.21,14.56l6.22-2.74c4.2,1.92,7.87,4.32,11.09,7.12.83,1.62.92,3.04.5,4.31,1.69-3.86,5.13-6.83,9.75-9.21l-11.47-15.15s16.88-7.31,17.65-15.17c.75-7.66-6.26-9.29-7.79-9.18-7.33.15-15.19,2.88-23.29,6.75-2.28-2.68-4.31-5.11-4.82-8.52-.02-2.48,2.03-4.98,6.5-7.48,63.18-28.01,91.44-47.5,65.06-53.65l-8.82-2c-7.99-3.4-16.41-2.39-24.99.22-24.65,6.92-50.39,19.32-76.88,35.52-2.97-3.64-7.78-4.05-13.72-2.44l-17.51,6.75-115.7-22.19-18.05,2.1c1.44,1.54,1.44,3.48.66,5.64l3.78-2.79,31.53,11.13-.72,3.45c3.04-1.12,6.33.59,9.63,2.58l-.89,5.15,7.06-3.51,28.33,9.27-2.66,6,6.7-3.35s4.28-1.72,13.45,3.27c9.17,4.99,11.53,6.06,11.53,6.06l-39.55,19.4c-8.92-2.95-19.44-13.17-29.99-23.54l-11.6,6.18,8.28,32.67c-26.23-6.23-45.19-8.84-48.6-3.76l39.66,13.55s-19.16,15.01,21.42,7.6l19.94,7.77c2.79-.64,4.86-1.72,5.95-3.38-.58-2.7-2.16-5.42-5.06-8.16Z"/>
</svg>